<mxfile host="app.diagrams.net" modified="2021-06-07T02:59:21.353Z" agent="5.0 (Windows NT 10.0; Win64; x64) AppleWebKit/537.36 (KHTML, like Gecko) Chrome/88.0.4324.104 Safari/537.36" etag="Z7cDZlu3JLxeXGt_l-AS" version="14.7.6" type="github" pages="2">
  <diagram id="Fzvb7RSM5rTjxrubtepL" name="1.7ConcurrentHashMap">
    <mxGraphModel dx="1619" dy="414" grid="1" gridSize="10" guides="1" tooltips="1" connect="1" arrows="1" fold="1" page="1" pageScale="1" pageWidth="827" pageHeight="1169" math="0" shadow="0">
      <root>
        <mxCell id="0" />
        <mxCell id="1" parent="0" />
        <mxCell id="NuMqMbZF1dJRSCSBSGXp-2" value="&lt;pre style=&quot;background-color: #ffffff ; color: #080808 ; font-family: &amp;#34;jetbrains mono&amp;#34; , monospace ; font-size: 13.5pt&quot;&gt;&lt;span style=&quot;color: #000000&quot;&gt;s0&lt;/span&gt;&lt;/pre&gt;" style="rounded=0;whiteSpace=wrap;html=1;" parent="1" vertex="1">
          <mxGeometry x="80" y="130" width="90" height="60" as="geometry" />
        </mxCell>
        <mxCell id="NuMqMbZF1dJRSCSBSGXp-3" value="" style="rounded=0;whiteSpace=wrap;html=1;" parent="1" vertex="1">
          <mxGeometry x="170" y="130" width="90" height="60" as="geometry" />
        </mxCell>
        <mxCell id="NuMqMbZF1dJRSCSBSGXp-4" value="" style="rounded=0;whiteSpace=wrap;html=1;" parent="1" vertex="1">
          <mxGeometry x="260" y="130" width="90" height="60" as="geometry" />
        </mxCell>
        <mxCell id="NuMqMbZF1dJRSCSBSGXp-5" value="" style="rounded=0;whiteSpace=wrap;html=1;" parent="1" vertex="1">
          <mxGeometry x="350" y="130" width="90" height="60" as="geometry" />
        </mxCell>
        <mxCell id="NuMqMbZF1dJRSCSBSGXp-6" value="" style="rounded=0;whiteSpace=wrap;html=1;" parent="1" vertex="1">
          <mxGeometry x="80" y="190" width="45" height="30" as="geometry" />
        </mxCell>
        <mxCell id="NuMqMbZF1dJRSCSBSGXp-7" value="" style="rounded=0;whiteSpace=wrap;html=1;" parent="1" vertex="1">
          <mxGeometry x="125" y="190" width="45" height="30" as="geometry" />
        </mxCell>
        <mxCell id="tu23rs6nQoFqhlMrEVJC-2" value="" style="edgeStyle=orthogonalEdgeStyle;rounded=0;orthogonalLoop=1;jettySize=auto;html=1;" edge="1" parent="1" source="NuMqMbZF1dJRSCSBSGXp-8" target="tu23rs6nQoFqhlMrEVJC-1">
          <mxGeometry relative="1" as="geometry" />
        </mxCell>
        <mxCell id="NuMqMbZF1dJRSCSBSGXp-8" value="" style="rounded=0;whiteSpace=wrap;html=1;" parent="1" vertex="1">
          <mxGeometry x="170" y="190" width="45" height="30" as="geometry" />
        </mxCell>
        <mxCell id="NuMqMbZF1dJRSCSBSGXp-9" value="" style="rounded=0;whiteSpace=wrap;html=1;" parent="1" vertex="1">
          <mxGeometry x="215" y="190" width="45" height="30" as="geometry" />
        </mxCell>
        <mxCell id="NuMqMbZF1dJRSCSBSGXp-10" value="" style="rounded=0;whiteSpace=wrap;html=1;" parent="1" vertex="1">
          <mxGeometry x="260" y="190" width="45" height="30" as="geometry" />
        </mxCell>
        <mxCell id="NuMqMbZF1dJRSCSBSGXp-11" value="" style="rounded=0;whiteSpace=wrap;html=1;" parent="1" vertex="1">
          <mxGeometry x="305" y="190" width="45" height="30" as="geometry" />
        </mxCell>
        <mxCell id="NuMqMbZF1dJRSCSBSGXp-12" value="" style="rounded=0;whiteSpace=wrap;html=1;" parent="1" vertex="1">
          <mxGeometry x="260" y="220" width="20" height="30" as="geometry" />
        </mxCell>
        <mxCell id="NuMqMbZF1dJRSCSBSGXp-14" value="" style="rounded=0;whiteSpace=wrap;html=1;" parent="1" vertex="1">
          <mxGeometry x="280" y="220" width="24" height="30" as="geometry" />
        </mxCell>
        <mxCell id="NuMqMbZF1dJRSCSBSGXp-16" value="" style="rounded=0;whiteSpace=wrap;html=1;" parent="1" vertex="1">
          <mxGeometry x="306" y="220" width="20" height="30" as="geometry" />
        </mxCell>
        <mxCell id="NuMqMbZF1dJRSCSBSGXp-17" value="" style="rounded=0;whiteSpace=wrap;html=1;" parent="1" vertex="1">
          <mxGeometry x="326" y="220" width="24" height="30" as="geometry" />
        </mxCell>
        <mxCell id="NuMqMbZF1dJRSCSBSGXp-18" value="&lt;pre style=&quot;background-color: #ffffff ; color: #080808 ; font-family: &amp;#34;jetbrains mono&amp;#34; , monospace ; font-size: 13.5pt&quot;&gt;&lt;span style=&quot;color: #000000&quot;&gt;Segment[]&lt;/span&gt;&lt;/pre&gt;" style="text;html=1;strokeColor=none;fillColor=none;align=center;verticalAlign=middle;whiteSpace=wrap;rounded=0;" parent="1" vertex="1">
          <mxGeometry x="-5" y="150" width="40" height="20" as="geometry" />
        </mxCell>
        <mxCell id="tu23rs6nQoFqhlMrEVJC-4" value="" style="edgeStyle=orthogonalEdgeStyle;rounded=0;orthogonalLoop=1;jettySize=auto;html=1;" edge="1" parent="1" source="tu23rs6nQoFqhlMrEVJC-1" target="tu23rs6nQoFqhlMrEVJC-3">
          <mxGeometry relative="1" as="geometry" />
        </mxCell>
        <mxCell id="tu23rs6nQoFqhlMrEVJC-1" value="" style="rounded=0;whiteSpace=wrap;html=1;" vertex="1" parent="1">
          <mxGeometry x="170" y="250" width="45" height="30" as="geometry" />
        </mxCell>
        <mxCell id="tu23rs6nQoFqhlMrEVJC-6" value="" style="edgeStyle=orthogonalEdgeStyle;rounded=0;orthogonalLoop=1;jettySize=auto;html=1;" edge="1" parent="1" source="tu23rs6nQoFqhlMrEVJC-3" target="tu23rs6nQoFqhlMrEVJC-5">
          <mxGeometry relative="1" as="geometry" />
        </mxCell>
        <mxCell id="tu23rs6nQoFqhlMrEVJC-3" value="" style="rounded=0;whiteSpace=wrap;html=1;" vertex="1" parent="1">
          <mxGeometry x="170" y="310" width="45" height="30" as="geometry" />
        </mxCell>
        <mxCell id="tu23rs6nQoFqhlMrEVJC-5" value="" style="rounded=0;whiteSpace=wrap;html=1;" vertex="1" parent="1">
          <mxGeometry x="170" y="360" width="45" height="30" as="geometry" />
        </mxCell>
        <mxCell id="tu23rs6nQoFqhlMrEVJC-7" value="&lt;pre style=&quot;background-color: #ffffff ; color: #080808 ; font-family: &amp;#34;jetbrains mono&amp;#34; , monospace ; font-size: 13.5pt&quot;&gt;&lt;span style=&quot;color: #000000&quot;&gt;HashEntry&lt;/span&gt;[] &lt;/pre&gt;" style="text;whiteSpace=wrap;html=1;" vertex="1" parent="1">
          <mxGeometry x="-40" y="170" width="110" height="60" as="geometry" />
        </mxCell>
      </root>
    </mxGraphModel>
  </diagram>
  <diagram id="kOR8MeG75AAu46VqsiLO" name="1.7HashMap">
    <mxGraphModel dx="2500" dy="896" grid="1" gridSize="10" guides="1" tooltips="1" connect="1" arrows="1" fold="1" page="1" pageScale="1" pageWidth="827" pageHeight="1169" math="0" shadow="0">
      <root>
        <mxCell id="NhHVNr-ap2CFED7T8A9z-0" />
        <mxCell id="NhHVNr-ap2CFED7T8A9z-1" parent="NhHVNr-ap2CFED7T8A9z-0" />
        <mxCell id="jK-MI6j5NtE0plNj9lit-0" value="&lt;pre style=&quot;background-color: #ffffff ; color: #080808 ; font-family: &amp;#34;jetbrains mono&amp;#34; , monospace ; font-size: 13.5pt&quot;&gt;&lt;br&gt;&lt;/pre&gt;" style="rounded=0;whiteSpace=wrap;html=1;" vertex="1" parent="NhHVNr-ap2CFED7T8A9z-1">
          <mxGeometry x="80" y="130" width="90" height="60" as="geometry" />
        </mxCell>
        <mxCell id="jK-MI6j5NtE0plNj9lit-1" value="" style="rounded=0;whiteSpace=wrap;html=1;" vertex="1" parent="NhHVNr-ap2CFED7T8A9z-1">
          <mxGeometry x="170" y="130" width="90" height="60" as="geometry" />
        </mxCell>
        <mxCell id="jK-MI6j5NtE0plNj9lit-24" value="" style="edgeStyle=orthogonalEdgeStyle;rounded=0;orthogonalLoop=1;jettySize=auto;html=1;" edge="1" parent="NhHVNr-ap2CFED7T8A9z-1" source="jK-MI6j5NtE0plNj9lit-2" target="jK-MI6j5NtE0plNj9lit-23">
          <mxGeometry relative="1" as="geometry" />
        </mxCell>
        <mxCell id="jK-MI6j5NtE0plNj9lit-2" value="1" style="rounded=0;whiteSpace=wrap;html=1;" vertex="1" parent="NhHVNr-ap2CFED7T8A9z-1">
          <mxGeometry x="260" y="130" width="90" height="60" as="geometry" />
        </mxCell>
        <mxCell id="jK-MI6j5NtE0plNj9lit-40" value="扩容" style="edgeStyle=orthogonalEdgeStyle;rounded=0;orthogonalLoop=1;jettySize=auto;html=1;entryX=0;entryY=0.5;entryDx=0;entryDy=0;" edge="1" parent="NhHVNr-ap2CFED7T8A9z-1" source="jK-MI6j5NtE0plNj9lit-3" target="jK-MI6j5NtE0plNj9lit-30">
          <mxGeometry relative="1" as="geometry" />
        </mxCell>
        <mxCell id="jK-MI6j5NtE0plNj9lit-3" value="" style="rounded=0;whiteSpace=wrap;html=1;" vertex="1" parent="NhHVNr-ap2CFED7T8A9z-1">
          <mxGeometry x="350" y="130" width="90" height="60" as="geometry" />
        </mxCell>
        <mxCell id="jK-MI6j5NtE0plNj9lit-15" value="&lt;pre style=&quot;background-color: #ffffff ; color: #080808 ; font-family: &amp;#34;jetbrains mono&amp;#34; , monospace ; font-size: 13.5pt&quot;&gt;&lt;pre style=&quot;font-family: &amp;#34;jetbrains mono&amp;#34; , monospace ; font-size: 13.5pt&quot;&gt;&lt;span style=&quot;color: #000000&quot;&gt;Entry&lt;/span&gt;[] &lt;span style=&quot;color: #871094&quot;&gt;table&lt;/span&gt;&lt;/pre&gt;&lt;/pre&gt;" style="text;html=1;strokeColor=none;fillColor=none;align=center;verticalAlign=middle;whiteSpace=wrap;rounded=0;" vertex="1" parent="NhHVNr-ap2CFED7T8A9z-1">
          <mxGeometry x="-30" y="150" width="40" height="20" as="geometry" />
        </mxCell>
        <mxCell id="jK-MI6j5NtE0plNj9lit-26" value="" style="edgeStyle=orthogonalEdgeStyle;rounded=0;orthogonalLoop=1;jettySize=auto;html=1;" edge="1" parent="NhHVNr-ap2CFED7T8A9z-1" source="jK-MI6j5NtE0plNj9lit-23" target="jK-MI6j5NtE0plNj9lit-25">
          <mxGeometry relative="1" as="geometry" />
        </mxCell>
        <mxCell id="jK-MI6j5NtE0plNj9lit-23" value="2" style="rounded=0;whiteSpace=wrap;html=1;" vertex="1" parent="NhHVNr-ap2CFED7T8A9z-1">
          <mxGeometry x="260" y="270" width="90" height="60" as="geometry" />
        </mxCell>
        <mxCell id="jK-MI6j5NtE0plNj9lit-28" value="" style="edgeStyle=orthogonalEdgeStyle;rounded=0;orthogonalLoop=1;jettySize=auto;html=1;" edge="1" parent="NhHVNr-ap2CFED7T8A9z-1" source="jK-MI6j5NtE0plNj9lit-25" target="jK-MI6j5NtE0plNj9lit-27">
          <mxGeometry relative="1" as="geometry" />
        </mxCell>
        <mxCell id="jK-MI6j5NtE0plNj9lit-25" value="3" style="rounded=0;whiteSpace=wrap;html=1;" vertex="1" parent="NhHVNr-ap2CFED7T8A9z-1">
          <mxGeometry x="260" y="410" width="90" height="60" as="geometry" />
        </mxCell>
        <mxCell id="jK-MI6j5NtE0plNj9lit-27" value="4" style="rounded=0;whiteSpace=wrap;html=1;" vertex="1" parent="NhHVNr-ap2CFED7T8A9z-1">
          <mxGeometry x="260" y="550" width="90" height="60" as="geometry" />
        </mxCell>
        <mxCell id="jK-MI6j5NtE0plNj9lit-30" value="&lt;pre style=&quot;background-color: #ffffff ; color: #080808 ; font-family: &amp;#34;jetbrains mono&amp;#34; , monospace ; font-size: 13.5pt&quot;&gt;&lt;br&gt;&lt;/pre&gt;" style="rounded=0;whiteSpace=wrap;html=1;" vertex="1" parent="NhHVNr-ap2CFED7T8A9z-1">
          <mxGeometry x="610" y="130" width="90" height="60" as="geometry" />
        </mxCell>
        <mxCell id="jK-MI6j5NtE0plNj9lit-31" value="" style="rounded=0;whiteSpace=wrap;html=1;" vertex="1" parent="NhHVNr-ap2CFED7T8A9z-1">
          <mxGeometry x="700" y="130" width="90" height="60" as="geometry" />
        </mxCell>
        <mxCell id="jK-MI6j5NtE0plNj9lit-32" value="" style="edgeStyle=orthogonalEdgeStyle;rounded=0;orthogonalLoop=1;jettySize=auto;html=1;" edge="1" parent="NhHVNr-ap2CFED7T8A9z-1" source="jK-MI6j5NtE0plNj9lit-33" target="jK-MI6j5NtE0plNj9lit-36">
          <mxGeometry relative="1" as="geometry" />
        </mxCell>
        <mxCell id="jK-MI6j5NtE0plNj9lit-33" value="4" style="rounded=0;whiteSpace=wrap;html=1;" vertex="1" parent="NhHVNr-ap2CFED7T8A9z-1">
          <mxGeometry x="790" y="130" width="90" height="60" as="geometry" />
        </mxCell>
        <mxCell id="jK-MI6j5NtE0plNj9lit-34" value="" style="rounded=0;whiteSpace=wrap;html=1;" vertex="1" parent="NhHVNr-ap2CFED7T8A9z-1">
          <mxGeometry x="880" y="130" width="90" height="60" as="geometry" />
        </mxCell>
        <mxCell id="jK-MI6j5NtE0plNj9lit-35" value="" style="edgeStyle=orthogonalEdgeStyle;rounded=0;orthogonalLoop=1;jettySize=auto;html=1;" edge="1" parent="NhHVNr-ap2CFED7T8A9z-1" source="jK-MI6j5NtE0plNj9lit-36" target="jK-MI6j5NtE0plNj9lit-38">
          <mxGeometry relative="1" as="geometry" />
        </mxCell>
        <mxCell id="jK-MI6j5NtE0plNj9lit-36" value="3" style="rounded=0;whiteSpace=wrap;html=1;" vertex="1" parent="NhHVNr-ap2CFED7T8A9z-1">
          <mxGeometry x="790" y="270" width="90" height="60" as="geometry" />
        </mxCell>
        <mxCell id="jK-MI6j5NtE0plNj9lit-37" value="" style="edgeStyle=orthogonalEdgeStyle;rounded=0;orthogonalLoop=1;jettySize=auto;html=1;" edge="1" parent="NhHVNr-ap2CFED7T8A9z-1" source="jK-MI6j5NtE0plNj9lit-38" target="jK-MI6j5NtE0plNj9lit-39">
          <mxGeometry relative="1" as="geometry" />
        </mxCell>
        <mxCell id="jK-MI6j5NtE0plNj9lit-38" value="2" style="rounded=0;whiteSpace=wrap;html=1;" vertex="1" parent="NhHVNr-ap2CFED7T8A9z-1">
          <mxGeometry x="790" y="410" width="90" height="60" as="geometry" />
        </mxCell>
        <mxCell id="jK-MI6j5NtE0plNj9lit-39" value="1" style="rounded=0;whiteSpace=wrap;html=1;" vertex="1" parent="NhHVNr-ap2CFED7T8A9z-1">
          <mxGeometry x="790" y="550" width="90" height="60" as="geometry" />
        </mxCell>
        <mxCell id="jK-MI6j5NtE0plNj9lit-41" value="&lt;pre style=&quot;background-color: #ffffff ; color: #080808 ; font-family: &amp;#34;jetbrains mono&amp;#34; , monospace ; font-size: 13.5pt&quot;&gt;&lt;br&gt;&lt;/pre&gt;" style="rounded=0;whiteSpace=wrap;html=1;" vertex="1" parent="NhHVNr-ap2CFED7T8A9z-1">
          <mxGeometry x="970" y="130" width="90" height="60" as="geometry" />
        </mxCell>
        <mxCell id="jK-MI6j5NtE0plNj9lit-42" value="" style="rounded=0;whiteSpace=wrap;html=1;" vertex="1" parent="NhHVNr-ap2CFED7T8A9z-1">
          <mxGeometry x="1060" y="130" width="90" height="60" as="geometry" />
        </mxCell>
        <mxCell id="jK-MI6j5NtE0plNj9lit-43" value="" style="rounded=0;whiteSpace=wrap;html=1;" vertex="1" parent="NhHVNr-ap2CFED7T8A9z-1">
          <mxGeometry x="1150" y="130" width="90" height="60" as="geometry" />
        </mxCell>
        <mxCell id="jK-MI6j5NtE0plNj9lit-44" value="" style="rounded=0;whiteSpace=wrap;html=1;" vertex="1" parent="NhHVNr-ap2CFED7T8A9z-1">
          <mxGeometry x="1240" y="130" width="90" height="60" as="geometry" />
        </mxCell>
      </root>
    </mxGraphModel>
  </diagram>
</mxfile>
